<?xml version="1.0" encoding="UTF-8" standalone="no"?>
<!-- Created with Inkscape (http://www.inkscape.org/) -->

<svg
   width="210mm"
   height="210mm"
   viewBox="0 0 210 210"
   version="1.1"
   id="svg5"
   xmlns="http://www.w3.org/2000/svg"
   xmlns:svg="http://www.w3.org/2000/svg">
  <defs
     id="defs2">
    <rect
       x="43.002197"
       y="147.71793"
       width="625.57953"
       height="170.18222"
       id="rect3440" />
    <rect
       x="43.002197"
       y="147.71793"
       width="625.57953"
       height="170.18222"
       id="rect8996" />
    <rect
       x="43.002197"
       y="147.71793"
       width="625.57953"
       height="170.18222"
       id="rect9004" />
    <rect
       x="43.002197"
       y="147.71793"
       width="625.57953"
       height="170.18222"
       id="rect12040" />
    <rect
       x="43.002197"
       y="147.71793"
       width="625.57953"
       height="170.18222"
       id="rect12048" />
  </defs>
  <g
     id="layer1">
    <rect
       style="fill:#212529;fill-opacity:1;stroke:none;stroke-width:57.1003;stroke-linecap:round;stroke-linejoin:round;stroke-miterlimit:4;stroke-dasharray:none;stroke-dashoffset:0;paint-order:markers stroke fill"
       id="rect22268"
       width="210"
       height="210"
       x="-8.8817842e-15"
       y="-7.1054274e-15" />
    <path
       style="color:#000000;fill:#d4aa00;stroke-linecap:round;stroke-linejoin:round;-inkscape-stroke:none;paint-order:markers stroke fill"
       d="m 172.34713,107.39454 c 14.79769,-15.050715 24.48102,-32.40057 28.14373,-48.632936 3.6627,-16.232362 1.23318,-31.718745 -8.97629,-41.756577 C 181.3051,6.9671942 165.78114,4.8019279 149.61321,8.739293 133.44527,12.676661 116.26067,22.65136 101.46299,37.702072 86.665301,52.752784 76.983366,70.104012 73.320658,86.336377 c -3.662708,16.232363 -1.23594,31.718773 8.973531,41.756603 10.20947,10.03783 25.736181,12.20308 41.904121,8.26571 16.16794,-3.93737 33.35114,-13.91344 48.14882,-28.96415 z m -5.28957,-5.20065 c -13.92634,14.16447 -30.08894,23.42031 -44.61498,26.95782 -14.52604,3.53751 -27.042436,1.42137 -34.946378,-6.34969 -7.903941,-7.77107 -10.230583,-20.24843 -6.939833,-34.832347 3.290743,-14.583928 12.271245,-30.901117 26.197581,-45.065584 13.92634,-14.164467 30.08894,-23.420303 44.61498,-26.957814 14.52604,-3.537517 27.04105,-1.422739 34.94499,6.348324 7.90394,7.771062 10.23197,20.24979 6.94122,34.83371 -3.29074,14.583928 -12.27124,30.901116 -26.19758,45.065581 z"
       id="path22038" />
    <ellipse
       style="fill:none;fill-opacity:0.998726;stroke:#cd87de;stroke-width:7.41839;stroke-linecap:round;stroke-linejoin:round;stroke-miterlimit:4;stroke-dasharray:none;stroke-dashoffset:0;paint-order:markers stroke fill"
       id="ellipse22142"
       cx="46.767097"
       cy="-148.48708"
       rx="74.184044"
       ry="45.99411"
       transform="rotate(134.51431)" />
    <path
       id="path22486"
       style="color:#000000;fill:#d4aa00;stroke-width:1;stroke-linecap:round;stroke-linejoin:round;-inkscape-stroke:none;paint-order:markers stroke fill"
       d="M 164.43957,6.8900187 C 159.6554,6.874511 154.66557,7.5090916 149.61309,8.7395181 133.44515,12.676886 116.26074,22.651379 101.46306,37.70209 86.665373,52.752804 76.983295,70.103965 73.320589,86.336332 69.65788,102.5687 72.084731,118.05512 82.2942,128.09296 c 7.848399,7.71645 18.84012,10.77581 30.84876,9.99163 v -7.41711 c -10.52828,0.81097 -19.488269,-1.81047 -25.64701,-7.86568 -7.90394,-7.77106 -10.230379,-20.24806 -6.939629,-34.831976 3.290745,-14.583928 12.271547,-30.901517 26.197889,-45.065983 13.92633,-14.164466 30.0888,-23.420017 44.61484,-26.957528 14.52604,-3.537517 27.0407,-1.422613 34.94464,6.34845 7.90394,7.771063 10.23244,20.249612 6.94169,34.833533 -3.29074,14.583928 -12.27154,30.900999 -26.19788,45.065464 -8.69119,8.8398 -18.25329,15.76749 -27.74507,20.58686 h 8.39431 v 3.89485 c 8.54092,-4.95387 16.91579,-11.42434 24.64036,-19.28099 14.79768,-15.050715 24.48079,-32.400327 28.1435,-48.632692 3.66271,-16.232362 1.23328,-31.718792 -8.9762,-41.756625 -7.019,-6.90101 -16.54965,-10.0810273 -27.07483,-10.1151443 z" />
  </g>
</svg>
